<svg xmlns="http://www.w3.org/2000/svg" viewBox="0 0 1024 1024">
  <defs>
    <filter id="soft-glow" x="-18%" y="-18%" width="136%" height="136%">
      <feGaussianBlur stdDeviation="4" result="blur"/>
      <feColorMatrix in="blur" type="matrix" values="0.45 0 0 0 0.18  0 0.58 0 0 0.76  0 0 0.9 0 1  0 0 0 0.9 0" result="cyan"/>
      <feMerge>
        <feMergeNode in="cyan"/>
        <feMergeNode in="SourceGraphic"/>
      </feMerge>
    </filter>
    <g id="node">
      <circle cx="512" cy="118" r="46"/>
      <circle cx="512" cy="118" r="32"/>
      <path d="M512 77 L553 118 L512 159 L471 118 Z"/>
      <circle cx="512" cy="118" r="18"/>
    </g>
    <g id="small-star">
      <path d="M0 -14 L3 -3 L14 0 L3 3 L0 14 L-3 3 L-14 0 L-3 -3 Z"/>
    </g>
  </defs>
  <g fill="none" stroke="#ffe4a3" stroke-linecap="round" stroke-linejoin="round" filter="url(#soft-glow)" opacity="0.34">
    <circle cx="512" cy="512" r="392" stroke-width="8"/>
    <circle cx="512" cy="512" r="365" stroke-width="2.8"/>
    <circle cx="512" cy="512" r="300" stroke-width="3"/>
    <circle cx="512" cy="512" r="250" stroke-width="1.8" opacity="0.8"/>
    <circle cx="512" cy="512" r="150" stroke-width="2.2" opacity="0.75"/>
    <circle cx="512" cy="512" r="106" stroke-width="2.8"/>
    <circle cx="512" cy="512" r="83" stroke-width="1.8" stroke-dasharray="2 9"/>
    <circle cx="512" cy="512" r="337" stroke-width="8" stroke-dasharray="1 22" opacity="0.86"/>
    <circle cx="512" cy="512" r="284" stroke-width="4" stroke-dasharray="1 15" opacity="0.62"/>
    <path d="M512 154 L596 428 L870 512 L596 596 L512 870 L428 596 L154 512 L428 428 Z" stroke-width="4.5"/>
    <path d="M512 154 L428 428 L154 512 L428 596 L512 870 L596 596 L870 512 L596 428 Z" stroke-width="2" opacity="0.72"/>
    <path d="M512 154 L512 870 M154 512 L870 512 M259 259 L765 765 M765 259 L259 765" stroke-width="2.4" opacity="0.78"/>
    <use href="#node"/>
    <use href="#node" transform="rotate(45 512 512)"/>
    <use href="#node" transform="rotate(90 512 512)"/>
    <use href="#node" transform="rotate(135 512 512)"/>
    <use href="#node" transform="rotate(180 512 512)"/>
    <use href="#node" transform="rotate(225 512 512)"/>
    <use href="#node" transform="rotate(270 512 512)"/>
    <use href="#node" transform="rotate(315 512 512)"/>
    <path d="M512 364 L549 475 L666 476 L572 543 L607 656 L512 587 L417 656 L452 543 L358 476 L475 475 Z" stroke-width="2.2" opacity="0.72"/>
    <path d="M512 246 C610 316 706 414 778 512 C706 610 610 708 512 778 C414 708 318 610 246 512 C318 414 414 316 512 246 Z" stroke-width="2" opacity="0.52"/>
  </g>
  <g fill="#ffe4a3" stroke="#ffe4a3" filter="url(#soft-glow)" opacity="0.3">
    <use href="#small-star" transform="translate(314 250) scale(0.8)"/>
    <use href="#small-star" transform="translate(710 285) scale(0.55)"/>
    <use href="#small-star" transform="translate(770 640) scale(0.75)"/>
    <use href="#small-star" transform="translate(332 704) scale(0.52)"/>
    <use href="#small-star" transform="translate(244 512) scale(0.48)"/>
    <use href="#small-star" transform="translate(635 748) scale(0.44)"/>
    <path d="M735 318 A28 28 0 1 1 698 282 A38 38 0 1 0 735 318 Z" stroke="none"/>
    <path d="M294 706 A24 24 0 1 1 262 675 A33 33 0 1 0 294 706 Z" stroke="none" opacity="0.78"/>
    <circle cx="244" cy="350" r="5"/>
    <circle cx="275" cy="374" r="3"/>
    <circle cx="308" cy="392" r="4"/>
    <path d="M244 350 L275 374 L308 392" stroke-width="2" fill="none"/>
    <circle cx="762" cy="356" r="4"/>
    <circle cx="794" cy="382" r="3"/>
    <circle cx="818" cy="420" r="4"/>
    <path d="M762 356 L794 382 L818 420" stroke-width="2" fill="none"/>
  </g>
</svg>
